<?xml version="1.0" encoding="iso-8859-1"?>
<!-- Generator: Adobe Illustrator 19.0.0, SVG Export Plug-In . SVG Version: 6.00 Build 0)  -->
<svg version="1.1" id="Capa_1" xmlns="http://www.w3.org/2000/svg" xmlns:xlink="http://www.w3.org/1999/xlink" x="0px" y="0px"
	 viewBox="0 0 490 490" style="enable-background:new 0 0 490 490;" xml:space="preserve">
<path d="M384.547,186.217h-5.68c-4.865-36.005-33.614-63.981-68.415-63.981c-7.951,0-15.478,1.752-22.607,4.428
	c-19.562-29.809-51.709-49.494-88.039-49.494c-57.588,0-104.619,49.274-107.32,110.463C40.614,194.624,0,241.974,0,299.524
	c0,62.318,47.453,113.305,105.454,113.305h279.093c57.999,0,105.453-50.987,105.453-113.305
	C490,237.204,442.546,186.217,384.547,186.217z M384.547,397.517H105.454c-49.704,0-90.141-43.959-90.141-97.993
	c0-49.05,34.056-90.628,79.218-96.714l12.688-1.71l0.564-12.79c2.372-53.734,42.793-95.826,92.023-95.826
	c29.613,0,57.74,15.919,75.238,42.582l6.718,10.237L293.224,141c6.189-2.322,11.825-3.451,17.228-3.451
	c26.445,0,49.334,21.804,53.241,50.719l1.793,13.262h13.382h5.68c49.704,0,90.14,43.96,90.14,97.994
	C474.688,353.558,434.251,397.517,384.547,397.517z"/>
<g>
</g>
<g>
</g>
<g>
</g>
<g>
</g>
<g>
</g>
<g>
</g>
<g>
</g>
<g>
</g>
<g>
</g>
<g>
</g>
<g>
</g>
<g>
</g>
<g>
</g>
<g>
</g>
<g>
</g>
</svg>
