<?xml version="1.0" encoding="iso-8859-1"?>
<!-- Generator: Adobe Illustrator 19.0.0, SVG Export Plug-In . SVG Version: 6.00 Build 0)  -->
<svg version="1.1" id="Capa_1" xmlns="http://www.w3.org/2000/svg" xmlns:xlink="http://www.w3.org/1999/xlink" x="0px" y="0px"
	 viewBox="0 0 490 490" style="enable-background:new 0 0 490 490;" xml:space="preserve">
<g>
	<path d="M237.461,268.963V380.38h-82.469L245,490l90.008-109.62h-82.469V268.963H237.461z M245,466.236l-58.116-70.778h116.231
		L245,466.236z"/>
	<path d="M142.374,236.777h205.253c46.925,0,85.105-36.957,85.105-82.381c0-44.79-37.134-81.35-83.176-82.351
		c-7.892-28.697-37.988-48.619-70.263-40.491C262.801,11.706,237.932,0,211.768,0c-44.142,0-80.732,32.025-85.929,73.959
		c-39.505,7.597-68.57,41.183-68.57,80.437C57.269,199.819,95.448,236.777,142.374,236.777z M133.745,87.976l6.302-0.766
		l0.309-6.346c1.826-36.884,33.188-65.787,71.411-65.787c23.19,0,45.114,11.058,58.66,29.595l3.254,4.461l5.242-1.767
		c5.021-1.693,9.674-2.518,14.209-2.518c21.365,0,39.799,15.401,42.876,35.838l0.957,6.42h10.66
		c38.606,0,70.027,30.184,70.027,67.289c0,37.104-31.421,67.303-70.027,67.303H142.374c-38.606,0-70.027-30.199-70.027-67.303
		C72.346,120.781,98.746,92.216,133.745,87.976z"/>
</g>
<g>
</g>
<g>
</g>
<g>
</g>
<g>
</g>
<g>
</g>
<g>
</g>
<g>
</g>
<g>
</g>
<g>
</g>
<g>
</g>
<g>
</g>
<g>
</g>
<g>
</g>
<g>
</g>
<g>
</g>
</svg>
