<?xml version="1.0" encoding="utf-8"?>
<!-- Generator: Adobe Illustrator 19.0.1, SVG Export Plug-In . SVG Version: 6.00 Build 0)  -->
<svg version="1.1" id="Capa_1" xmlns="http://www.w3.org/2000/svg" xmlns:xlink="http://www.w3.org/1999/xlink" x="0px" y="0px"
	 viewBox="225 -225 490 490" style="enable-background:new 225 -225 490 490;" xml:space="preserve">
<g>
	<polygon points="462.5,158.4 477.8,158.4 477.7,85.6 550.4,85.8 550.4,70.5 477.6,70.3 477.5,-2.5 462.2,-2.4 462.3,70.3 
		389.6,70.2 389.6,85.5 462.4,85.6 	"/>
	<path d="M499.3-85.4l15.3,15.3h185.1v296.8H240.3V-70.1h0.4c-0.2-1.1-0.1-2.2,0.4-3.2c0-0.1,0.1-0.2,0.1-0.2c-0.1-2,0.3-4.1,1.1-6
		c0.8-1.9,1.9-4.1,3.4-5.9H225v327.5h490V-85.4H499.3z"/>
	<path d="M499.2-85.5l15.4,15.4h15.8l-74.1-94.4H288.4l-74.1,94.4h26.4c-0.2-1.1-0.1-2.2,0.4-3.2c0-0.1,0.1-0.2,0.1-0.2
		c-0.1-2,0.3-4.1,1.1-6c0.8-1.9,1.9-4.1,3.4-5.9h0l50-63.8h152.9l49.3,62.9C498.5-86.1,498.8-85.8,499.2-85.5z"/>
</g>
</svg>
