<?xml version="1.0" encoding="iso-8859-1"?>
<!-- Generator: Adobe Illustrator 19.0.0, SVG Export Plug-In . SVG Version: 6.00 Build 0)  -->
<svg version="1.1" id="Capa_1" xmlns="http://www.w3.org/2000/svg" xmlns:xlink="http://www.w3.org/1999/xlink" x="0px" y="0px"
	 viewBox="0 0 490 490" style="enable-background:new 0 0 490 490;" xml:space="preserve">
<g>
	<path d="M104.361,490h281.277c21.458,0,38.924-17.451,38.924-38.909V81.108h47.119V65.796H343.993V0H146.007v65.796H18.318v15.313
		h47.119v369.982C65.437,472.549,82.903,490,104.361,490z M409.25,451.091c0,13.01-10.587,23.597-23.612,23.597H104.361
		c-13.025,0-23.612-10.587-23.612-23.597V81.108H409.25V451.091z M161.32,15.313H328.68v50.483H161.32V15.313z"/>
	<rect x="158.224" y="182.374" width="15.313" height="191.406"/>
	<rect x="237.344" y="182.374" width="15.312" height="191.406"/>
	<rect x="316.463" y="182.374" width="15.313" height="191.406"/>
</g>
<g>
</g>
<g>
</g>
<g>
</g>
<g>
</g>
<g>
</g>
<g>
</g>
<g>
</g>
<g>
</g>
<g>
</g>
<g>
</g>
<g>
</g>
<g>
</g>
<g>
</g>
<g>
</g>
<g>
</g>
</svg>
