<?xml version="1.0" encoding="iso-8859-1"?>
<!-- Generator: Adobe Illustrator 19.0.0, SVG Export Plug-In . SVG Version: 6.00 Build 0)  -->
<svg version="1.1" id="Capa_1" xmlns="http://www.w3.org/2000/svg" xmlns:xlink="http://www.w3.org/1999/xlink" x="0px" y="0px"
	 viewBox="0 0 490 490" style="enable-background:new 0 0 490 490;" xml:space="preserve">
<g>
	<path d="M424.563,451.091V81.108h47.119V65.796H343.993V0H146.007v65.796H18.318v15.313h47.119v369.982
		c0,21.458,17.466,38.909,38.924,38.909h281.277C407.097,490,424.563,472.549,424.563,451.091z M161.32,15.313H328.68v50.483H161.32
		V15.313z M385.639,474.688H104.361c-13.025,0-23.612-10.587-23.612-23.597V81.108h328.501v369.982
		C409.251,464.1,398.663,474.688,385.639,474.688z"/>
	<path d="M245,159.555l-91.411,111.33h83.755v113.154h15.313V270.885h83.755L245,159.555z M245,183.69l59.022,71.882H185.978
		L245,183.69z"/>
</g>
<g>
</g>
<g>
</g>
<g>
</g>
<g>
</g>
<g>
</g>
<g>
</g>
<g>
</g>
<g>
</g>
<g>
</g>
<g>
</g>
<g>
</g>
<g>
</g>
<g>
</g>
<g>
</g>
<g>
</g>
</svg>
