<?xml version="1.0" encoding="utf-8"?>
<!-- Generator: Adobe Illustrator 19.0.1, SVG Export Plug-In . SVG Version: 6.00 Build 0)  -->
<svg version="1.1" id="Capa_1" xmlns="http://www.w3.org/2000/svg" xmlns:xlink="http://www.w3.org/1999/xlink" x="0px" y="0px"
	 viewBox="195 -195 490 490" style="enable-background:new 195 -195 490 490;" xml:space="preserve">
<style type="text/css">
	.st0{fill:#FFFFFF;}
</style>
<g>
	<polygon class="st0" points="432.5,154.6 447.8,154.6 447.7,81.8 520.4,82 520.4,66.7 447.6,66.5 447.5,-6.3 432.2,-6.2 
		432.3,66.5 359.6,66.4 359.6,81.7 432.4,81.8 	"/>
	<path class="st0" d="M469.3-89.2l15.3,15.3h185.1v296.8H210.3V-73.9h0.4c-0.2-1.1-0.1-2.2,0.4-3.2c0-0.1,0.1-0.2,0.1-0.2
		c-0.1-2,0.3-4.1,1.1-6s1.9-4.1,3.4-5.9H195v327.5h490V-89.2H469.3z"/>
	<path class="st0" d="M469.2-89.3l15.4,15.4h15.8l-74.1-94.4H258.4l-74.1,94.4h26.4c-0.2-1.1-0.1-2.2,0.4-3.2c0-0.1,0.1-0.2,0.1-0.2
		c-0.1-2,0.3-4.1,1.1-6s1.9-4.1,3.4-5.9l0,0l50-63.8h152.9l49.3,62.9C468.5-89.9,468.8-89.6,469.2-89.3z"/>
</g>
</svg>
