<?xml version="1.0" encoding="iso-8859-1"?>
<!-- Generator: Adobe Illustrator 19.0.0, SVG Export Plug-In . SVG Version: 6.00 Build 0)  -->
<svg version="1.1" id="Capa_1" xmlns="http://www.w3.org/2000/svg" xmlns:xlink="http://www.w3.org/1999/xlink" x="0px" y="0px"
	 viewBox="0 0 490 490" style="enable-background:new 0 0 490 490;" xml:space="preserve">
<g>
	<path d="M102.073,215.332c16.09,0,29.533-7.028,39.971-20.89c10.049-13.354,14.924-36.173,14.924-69.729
		c0-31.118-4.95-52.681-15.118-65.96c-10.527-13.712-23.911-20.666-39.777-20.666c-15.911,0-29.264,7.028-39.687,20.89
		C52.353,72.36,47.478,95.27,47.478,129.02c0,30.894,4.95,52.367,15.118,65.631C73.108,208.379,86.387,215.332,102.073,215.332z
		 M74.633,68.174c7.477-9.944,16.449-14.774,27.44-14.774c11.006,0,20.053,4.8,27.634,14.669
		c7.926,10.348,11.948,29.414,11.948,56.644c0,29.698-3.993,50.065-11.843,60.532c-7.492,9.944-16.554,14.774-27.739,14.774
		c-10.826,0-19.754-4.8-27.335-14.669c-7.925-10.363-11.948-29.309-11.948-56.33C62.79,99.128,66.783,78.656,74.633,68.174z"/>
	<path d="M347.657,295.543c-10.049,13.354-14.924,36.262-14.924,70.043c0,30.67,4.935,52.083,15.088,65.467
		c10.512,13.832,23.806,20.845,39.507,20.845c16.314,0,29.877-7.028,40.27-20.89c10.049-13.368,14.924-36.173,14.924-69.729
		c0-31.074-4.95-52.652-15.118-65.931c-10.512-13.727-23.896-20.681-39.777-20.681C371.522,274.668,358.064,281.696,347.657,295.543
		z M387.628,289.98c11.021,0,20.053,4.8,27.619,14.669c7.94,10.378,11.963,29.429,11.963,56.629
		c0,29.698-3.993,50.065-11.843,60.547c-7.462,9.929-16.643,14.759-28.038,14.759c-10.811,0-19.739-4.845-27.305-14.804
		c-7.955-10.453-11.978-29.369-11.978-56.196c0-29.907,3.993-50.379,11.843-60.831C367.365,294.81,376.442,289.98,387.628,289.98z"
		/>
	<path d="M310.661,273.457c-16.703,23.642-25.182,52.771-25.182,86.596c0,42.483,9.6,75.022,28.517,96.735
		C333.181,478.83,357.556,490,386.416,490c29.234,0,54.087-11.245,73.871-33.436c19.559-21.952,29.474-53.28,29.474-93.131
		c0-40.883-9.825-72.54-29.189-94.058c-19.589-21.772-44.636-32.808-74.454-32.808C353.339,236.566,327.948,248.978,310.661,273.457
		z M449.177,279.603c16.778,18.632,25.272,46.835,25.272,83.83c0,35.978-8.613,63.882-25.586,82.933
		c-16.987,19.066-37.414,28.322-62.446,28.322c-24.584,0-44.487-9.137-60.876-27.948c-16.419-18.842-24.748-48.016-24.748-86.686
		c0-30.595,7.522-56.764,22.371-77.774c14.46-20.457,35.051-30.401,62.955-30.401C411.763,251.879,432.384,260.956,449.177,279.603z
		"/>
	<path d="M151.914,490L400.084,0h-61.085L89.886,490H151.914z M348.389,15.313h26.782L142.493,474.688h-27.634L348.389,15.313z"/>
	<path d="M101.176,253.419c29.04,0,53.788-11.245,73.557-33.436c19.559-21.922,29.473-53.25,29.473-93.116
		c0-40.913-9.824-72.555-29.189-94.058C155.428,11.036,130.381,0,100.563,0C67.964,0,42.678,12.471,25.406,37.04
		C8.703,60.786,0.239,89.871,0.239,123.487c0,42.693,9.6,75.291,28.517,96.899C47.956,242.308,72.316,253.419,101.176,253.419z
		 M37.937,45.848c14.445-20.546,34.932-30.535,62.626-30.535c25.646,0,46.266,9.077,63.074,27.739
		c16.763,18.602,25.257,46.805,25.257,83.815c0,35.993-8.613,63.897-25.586,82.918c-16.987,19.066-37.309,28.322-62.132,28.322
		c-24.584,0-44.517-9.092-60.906-27.799c-16.404-18.737-24.718-47.956-24.718-86.821C15.552,93.086,23.088,66.977,37.937,45.848z"/>
</g>
<g>
</g>
<g>
</g>
<g>
</g>
<g>
</g>
<g>
</g>
<g>
</g>
<g>
</g>
<g>
</g>
<g>
</g>
<g>
</g>
<g>
</g>
<g>
</g>
<g>
</g>
<g>
</g>
<g>
</g>
</svg>
