<?xml version="1.0" encoding="utf-8"?>
<!-- Generator: Adobe Illustrator 19.0.1, SVG Export Plug-In . SVG Version: 6.00 Build 0)  -->
<svg version="1.1" id="Слой_1" xmlns="http://www.w3.org/2000/svg" xmlns:xlink="http://www.w3.org/1999/xlink" x="0px" y="0px"
	 viewBox="0 0 40 40" style="enable-background:new 0 0 40 40;" xml:space="preserve">
<style type="text/css">
	.st0{fill:none;stroke:#000000;stroke-miterlimit:10;}
</style>
<line class="st0" x1="0" y1="40" x2="12.5" y2="9.9"/>
<line class="st0" x1="12.5" y1="9.9" x2="19.4" y2="40"/>
<line class="st0" x1="19.4" y1="40" x2="40" y2="0"/>
<line class="st0" x1="0" y1="40" x2="40" y2="0"/>
<g>
	<g>
		<path d="M7.2,24.8c0,0.2-0.1,0.4-0.1,0.7c-0.2,1.2,1,2.4,2.2,1.7c1.4-0.9,2.6-4.3-0.1-4.3c-3.1,0.1-3.3,4.4-4.2,6.3
			c-0.6,1.3,0.7,2.9,2.1,2.1c1.4-0.9,2.8-2,4.1-3.1c1.3-1.2-0.4-3.3-1.8-2.4c-1.2,0.7-1.8,1.7-2.5,2.9C6.2,29.6,6.8,31,8,30.9
			c1.2-0.1,1.7-0.8,2.5-1.7c1-1.1,2.3-1.8,3.4-2.8c0.7-0.7,1.5-1.5,1.5-2.6c0-0.7-0.3-1.3-0.4-2c-0.2-0.8,0-1.6-0.2-2.4
			c-0.7-2.3-4.1-2-5.5-0.5C9,19.3,8.9,19.7,8.7,20c-0.3,0.4-0.7,0.6-1,1.1c-0.5,0.8-0.9,2-1,3c0,0.5,0.3,1.1,0.7,1.3
			c2.6,1.2,4.7-1.3,5.8-3.4c-0.9-0.4-1.8-0.8-2.7-1.2C10,21.9,9.8,23,10,24.2c0.2,1.9,3.2,1.9,3,0c-0.1-1,0-1.7,0.4-2.6
			c0.7-1.6-2-2.7-2.7-1.2c-0.2,0.3-1.3,2.5-1.7,2.3c0.2,0.4,0.5,0.9,0.7,1.3c0.1-1,1.9-3.4,3-3.1c-0.3-0.2-0.6-0.5-0.9-0.7
			c0.3,0.7,0.1,1.7,0.2,2.5c0.2,1.2,0.2,1.2-0.9,2c-1.4,1.1-2.6,2.3-3.9,3.6c0.4-0.1,0.7-0.3,1.1-0.4c-0.1,0-0.2,0-0.3,0
			c0.4,0.8,0.9,1.5,1.3,2.3c0.4-0.7,0.7-1.3,1.4-1.8c-0.6-0.8-1.2-1.6-1.8-2.4c-1.1,1-2.2,1.9-3.4,2.6c0.7,0.7,1.4,1.4,2.1,2.1
			c0.7-1.5,0.8-4.2,2.4-5c-0.4,0.1-0.8,0.1-1.2,0.2c0.1,0,0.1,0,0.2,0c-0.3-0.3-0.7-0.7-1-1c0-0.1-0.1-0.2-0.1-0.3
			c0.7,0.6,1.5,1.1,2.2,1.7c0-0.2,0.1-0.4,0.1-0.7C10.4,23.7,7.6,22.9,7.2,24.8L7.2,24.8z"/>
	</g>
</g>
<g>
	<g>
		<path d="M9.8,17.3c0,0-0.1,0-0.1,0.1c0.4-0.1,0.8-0.1,1.2-0.2c0,0-0.1,0-0.1,0c0.3,0.2,0.6,0.5,0.9,0.7c0,0,0,0,0-0.1
			c0.1,0.4,0.1,0.8,0.2,1.2c0,0,0-0.1,0-0.1c-0.1,0.2-0.3,0.4-0.4,0.7c-0.2,0.2-0.1,0,0.1,0c0.2,0,0.2,0,0.4,0.1
			c1.3,0.9,2.7-0.8,2.1-2.1c-0.3-0.6-0.8-1.1-1.2-1.6c0.1,0.3,0.1,0.5,0.2,0.8c0,0.4,0.1,0,0.2-0.2c0.1-0.3,0.2-0.5,0.2-0.8
			c0-0.4,0.2-0.8,0.2-1.2c-1,0-1.9,0-2.9,0c0.2,0.9,0.3,1.8,0.5,2.7c0.4,1.9,3.2,1.1,2.9-0.8c-0.2-0.9-0.3-1.8-0.5-2.7
			c-0.3-1.4-2.6-1.4-2.9,0c-0.1,0.5-0.2,1-0.3,1.5c-0.1,0.4-0.3,0.7-0.4,1.2c-0.2,1.1,0.9,1.8,1.4,2.7c0.7-0.7,1.4-1.4,2.1-2.1
			c-1.1-0.8-3.1-0.7-4,0.3c-0.5,0.6-0.7,1.4-0.3,2.1c0.5,0.8,1.5,0.9,2.3,0.5c0.7-0.3,0.9-1.4,0.5-2.1C11.4,17.1,10.5,17,9.8,17.3
			L9.8,17.3z"/>
	</g>
</g>
<g>
	<g>
		<path d="M4.1,36.2c0.4-0.3,0.8-0.6,1.1-1c0.2-0.3,0.3-0.6,0.5-0.9c0.3-0.4,0.5-0.7,0.7-1.1c0.1-0.4,0.2-0.7,0.5-1
			c-0.2,0.1-0.4,0.3-0.7,0.4c0.3-0.1,0.8-0.1,1.2-0.2c0.5-0.2,0.9-0.5,1.1-1c0.3-0.8,0.2-2.1-0.9-2.2c-0.9-0.1-1.9-0.5-2.7,0.1
			c-0.4,0.3-0.6,0.8-0.6,1.3c0,0.2,0,0.5,0.1,0.6c0.1,0.1,0.1,0.3,0.2,0.4c0.1,0.4,0.2,0.2,0.1-0.4c-1,1.6,1.6,3.1,2.6,1.5
			c0.6-0.9,0.1-1.6,0-2.6c0,0.3,0,0.5,0,0.8c0,0,0-0.1,0-0.1c-0.2,0.3-0.5,0.6-0.7,0.9c0,0,0.1,0,0.1,0C6.2,31.9,6,31.9,5.7,32
			c0.3,0,0.6,0.1,0.9,0.1c-0.3-0.7-0.6-1.5-0.9-2.2c0,0,0,0,0,0c0.2-0.1,0.4-0.3,0.7-0.4c-0.4,0.2-1,0.1-1.5,0.3
			c-0.5,0.3-0.9,1-1.2,1.5c-0.3,0.6-0.2,0.8-0.5,1.2c-0.2,0.3-0.3,0.9-0.6,1.1C0.9,34.6,2.4,37.2,4.1,36.2L4.1,36.2z"/>
	</g>
</g>
<g>
	<g>
		<path d="M19.9,25.6c0.4-0.6,0.4-1.1,0.2-1.7c-0.3-0.8-1.4-1.5-2.2-0.9c-0.4,0.3-0.9,0.3-1.2,0.8c0.8,0.5,1.7,1,2.5,1.5
			c0-0.1,0.1-0.2,0.1-0.3c-0.3,0.3-0.7,0.7-1,1c1.1-0.4,1.7-1,2.5-1.9c0.6-0.8-0.1-2-0.9-2.2c-0.1,0-0.1,0-0.2-0.1
			c0.1,0.9,0.2,1.8,0.4,2.7c1.1-0.8,2.3-1.6,3-2.8c0.7-1.3-0.8-2.8-2.1-2.1c-0.4,0.2-0.7,0.5-1.1,0.8c-1.1,0.9,0.1,3,1.5,2.5
			c1.3-0.5,1.8-1.9,2.9-2.6c0.2-0.4,0.6-0.4,1.1-0.2c1,0.6,1.2,0.6,0.7-0.1c0.1,0.8,0,0.9-0.7,1.3c0.8,0.4,1.5,0.9,2.3,1.3
			c-0.2-1.8-0.7-3.4-2.9-3.1c-1.4,0.2-3,1.4-2.6,2.9c0.1,0.5,0.5,0.9,1,1c1.1,0.2,2.1-0.2,2.9-1c0.9-0.7,0.4-2.2-0.7-2.5
			c-0.7-0.2-1.2,0-1.7,0.4c-0.5,0.4-0.9,1-1.4,1.4c0.2,0.3,0,0.4-0.5,0.2c-0.3,0-0.5,0.1-0.8,0.1c-1,0.1-2.2,0.4-2.9,1
			c-0.8,0.7-0.5,1.5-1,2.2c0.7,0.7,1.4,1.4,2.1,2.1c0.5-0.6,0.7-1.1,0.5-1.9c-0.6,0.6-1.2,1.2-1.8,1.8c1.3,0.4,2.3,0.5,3.6-0.1
			c1.7-0.7,2.8-2.3,4.7-2.4c-0.5-0.6-1-1.3-1.4-1.9c-0.6,1.4-2,2.3-2.9,3.5c0.6-0.2,1.1-0.5,1.7-0.7c-0.1,0-0.1,0-0.2,0
			c-1.9-0.5-2.7,2.4-0.8,2.9c0.1,0,0.1,0,0.2,0c0.7,0.2,1.3-0.1,1.7-0.7c1.1-1.5,2.5-2.4,3.2-4.2C27.8,23,26.9,22,26,22
			c-1.4,0.1-2.6,0.4-3.8,1.2C21,24,20,25.1,18.5,24.6c-1.1-0.3-2.2,0.8-1.8,1.8c0,0.1,0,0.1,0.1,0.2c0.1-0.5,0.3-1,0.4-1.5
			c-0.1,0.1-0.1,0.1-0.2,0.2c-1.2,1.5,0.8,3.6,2.1,2.1c0.6-0.6,0.7-1.1,1-1.8c0-0.2,0-0.4,0-0.6c0.1,0.1,0.2,0.2,0.2,0.3
			c0.5-0.3,1.2-0.2,1.7-0.3c1.9-0.2,2.1-1.4,3.6-2.4c-0.4,0.1-0.8,0.1-1.2,0.2c0,0,0.1,0,0.1,0c-0.2-0.8-0.4-1.7-0.7-2.5
			c0,0.1,0,0.1,0,0.2c0.3,0.3,0.7,0.7,1,1c0-0.1,0-0.1,0-0.2c-0.1,0.4-0.1,0.8-0.2,1.2c0.1,0,0.3-0.1,0.4-0.1
			c-0.3-0.2-0.6-0.5-0.9-0.7c0.1,0.3,0.1,0.5,0.2,0.8c0.1,1.1,1.2,2,2.3,1.3c1.1-0.7,2-1.4,2.1-2.8C29,20,29,18.8,28,18.1
			c-1-0.8-2.9-1.2-4.1-1c-0.8,0.2-1.3,0.6-1.8,1.1c-0.4,0.4-1.1,1.6-1.6,1.8c0.5,0.8,1,1.7,1.5,2.5c0.2-0.1,0.3-0.2,0.5-0.3
			c-0.7-0.7-1.4-1.4-2.1-2.1c-0.4,0.7-1.2,1.3-1.9,1.8c-1.1,0.7-0.9,2.4,0.4,2.7c0.1,0,0.1,0,0.2,0.1c-0.3-0.7-0.6-1.5-0.9-2.2
			c-0.7,0.9-1.4,0.7-1.8,1.8c-0.5,1.4,1.6,2.6,2.5,1.5c-0.3,0.4,0.4-0.1,0.6-0.3c-0.7-0.3-1.5-0.6-2.2-0.9c0,0.1,0.1,0.2,0.1,0.3
			c0.1-0.4,0.1-0.8,0.2-1.2c-0.1,0.1-0.1,0.2-0.2,0.3C16.2,25.7,18.8,27.2,19.9,25.6L19.9,25.6z"/>
	</g>
</g>
<g>
	<g>
		<path d="M17.1,29.2c0.4,0.3,0.8,0.7,1.3,0.8c0.7,0.1,1.3-0.1,1.7-0.7c-0.3,0.5,0,0.3,0.5,0.2c0.6-0.1,1.2-0.2,1.8-0.3
			c1-0.2,1.8-0.4,2.6-1c1.5-1.2,0.3-3.4-1.5-2.6c-0.7,0.4-0.9,1-1.3,1.7c-0.6,1.2-1.1,0.9-2.3,0.9c-1.4,0-2.8,0.4-2.7,2
			c0.1,1.3,0.7,3.3,2.2,3.3c0.8,0,1.2-0.5,1.9-0.8c0.9-0.5,1.6-0.6,2.4-1.3c1-1,0-3.1-1.5-2.5c-1.4,0.6-3.4,3.2-3.1,4.8
			c0.1,0.7,0.8,1,1.4,1.1c0.6,0.1,1.1-0.3,1.5-0.7c-0.7-0.7-1.4-1.4-2.1-2.1c-0.3,0.4-0.9,1.5-0.9,1.5c0.5-0.1,1-0.3,1.5-0.4
			c-0.1,0-0.2-0.1-0.3-0.1c0.3,0.2,0.6,0.5,0.9,0.7c-0.2-0.3-0.3-0.7-0.5-1.1c-0.8-1.5-3.2-0.5-2.7,1.2c0.2,0.8,0.4,1.4,0.3,2.3
			c-0.1,1.9,2.9,1.9,3,0c0-1.1-0.2-2-0.5-3.1c-0.9,0.4-1.8,0.8-2.7,1.2c0.5,0.9,0.7,1.8,1.9,1.9c1.4,0.1,1.5-1,2.2-1.9
			c1.3-1.5-0.6-3.3-2.1-2.1c-0.1,0.1-0.2,0.2-0.3,0.2c0.4-0.1,0.7-0.3,1.1-0.4c0,0-0.1,0-0.1,0c0.5,0.4,1,0.7,1.4,1.1
			c0.1,0.8,1.4-1.2,1-1.1c-0.5-0.8-1-1.7-1.5-2.5c-0.5,0.5-1.1,0.5-1.7,0.8c-0.3,0.1-0.6,0.5-0.9,0.5c0.5,0.1,1,0.3,1.5,0.4
			c-0.1-0.1-0.3-0.9-0.3-1.1c-0.2,0.4-0.5,0.9-0.7,1.3c0.5-0.3,1.7,0.1,2.3,0c0.6-0.1,1-0.3,1.5-0.6c0.5-0.3,0.9-0.7,1.2-1.1
			c0.1-0.1,0.6-1.3,0.5-1.3c-0.5-0.9-1-1.7-1.5-2.6c-1.7,1.3-4.9,0.2-6.1,2.2c0.6-0.2,1.1-0.5,1.7-0.7c0,0,0,0,0,0
			C17.9,25.8,15.7,27.9,17.1,29.2L17.1,29.2z"/>
	</g>
</g>
<g>
	<g>
		<path d="M25.1,27.3c1.6-0.9,1.5-2.5,1.4-4.2c-0.1-2.1,0.3-4.4-0.8-6.3c-0.3,0.7-0.6,1.5-0.9,2.2c2.2-0.8,3.2-3.3,5.2-4.2
			c-0.6-0.1-1.2-0.2-1.8-0.2c0.4,0.4-1.3,2.1-1.4,2.4c-0.3,0.7,0,1.3-0.1,1.9c-0.4,1.6,2,2.7,2.7,1.2c0.6-1.2,1.1-2.4,1.7-3.6
			c0.6-1.3,2-3,2-4.4c0-0.8-0.5-1.4-1.2-1.8c-1.4-0.6-1.7,0.7-2.8,0.9c0.3,1,0.5,1.9,0.8,2.9c1.9-0.5,3.1-2.3,4.4-3.7
			c-0.8-0.6-1.6-1.2-2.4-1.8C31.7,9,31.4,9.7,31.1,10c-1.2,1.5,0.9,3.6,2.1,2.1c0.6-0.7,0.8-1.3,1.3-2.1c1-1.4-1.2-3-2.4-1.8
			c-0.8,0.8-1.9,2.6-3.1,2.9c-1.9,0.5-1.1,3.2,0.8,2.9c0.2,0,1.7-0.7,1.3-0.9c-0.3-0.3-0.7-0.7-1-1c-0.2-0.7-0.4,0.4-0.6,0.8
			c-0.4,0.8-0.9,1.6-1.2,2.4c-0.5,1.1-0.9,2.2-1.4,3.3c0.9,0.4,1.8,0.8,2.7,1.2c0.1-0.5,0-1.2,0.3-1.6c0.4-0.7,1.1-0.9,1.4-1.7
			c0.5-1.2,0.1-3-0.9-3.8c-0.6-0.5-1.2-0.5-1.8-0.2c-1.8,0.8-2.6,3.2-4.5,3.9c-0.9,0.3-1.4,1.3-0.9,2.2c0.2,0.4,0.7,6.2,0.4,6.3
			C21.9,25.6,23.5,28.2,25.1,27.3L25.1,27.3z"/>
	</g>
</g>
<g>
	<g>
		<path d="M33,11.4c0-0.2,0-0.4,0-0.6c0-1.2-1.7-2.1-2.6-1.1c-1.2,1.3-2.9,2.8-3.4,4.6c-0.4,1.2,1.1,2.4,2.2,1.7
			c1.4-0.9,2.2-2.2,3.2-3.5c1-1.4,2-2.8,3-4.1c1.1-1.6-1.5-3.1-2.6-1.5c-0.8,1.1-1.6,2.2-2.4,3.3c-0.8,1.1-1.5,2.5-2.7,3.2
			c0.7,0.6,1.5,1.1,2.2,1.7c0.2-0.6,0.8-1.1,1.2-1.6c0.5-0.6,1-1.1,1.4-1.7c-0.9-0.4-1.7-0.7-2.6-1.1c0,0.2,0,0.4,0,0.6
			C30,13.3,33.1,13.3,33,11.4L33,11.4z"/>
	</g>
</g>
<g>
	<g>
		<path d="M34.7,5.8C34.6,5.8,34.6,5.9,34.7,5.8c0.5,0.2,0.9,0.4,1.4,0.5c0.2-0.9-0.7-1.5-1.5-0.9c-0.7,0.5-0.7,1.7,0.3,1.8
			c-0.1-0.1-0.3-0.2-0.4-0.3c-0.2-0.4-0.1,0.2,0,0.4c0.1,0.3,0.3,0.5,0.5,0.7c0.4,0.3,0.9,0.2,1.2-0.2c0.4-0.6,0.1-1.4,0.3-2
			c0.2-0.4,0.7-0.8,1-1.2c0.3-0.3,0.5-0.6,0.8-0.9c0.6-0.7-0.4-1.8-1.1-1.1c-0.6,0.7-1.3,1.4-1.8,2.1c-0.5,0.7-0.3,1.6-0.6,2.4
			c0.1-0.1,0.2-0.3,0.3-0.4c0,0,0,0-0.1,0c0.2,0,0.4-0.1,0.6-0.1c0.3,0.1,0.1-0.4,0-0.5c-0.1-0.2-0.3-0.3-0.5-0.4
			c0.1,0.1,0.2,0.3,0.3,0.4c0-0.1,0-0.1,0-0.2c0,0.2-0.1,0.4-0.1,0.6c-0.1,0-0.1,0-0.2,0.1c-0.2-0.1-0.4-0.1-0.5-0.2
			c0,0,0.1,0.1,0.1,0.1C34.8,6.3,34.7,6,34.7,5.8C34.6,5.8,34.6,5.9,34.7,5.8c-0.2,1,1.1,1.4,1.4,0.5c0,0,0-0.1,0-0.1
			C36.4,5.3,34.9,4.9,34.7,5.8L34.7,5.8z"/>
	</g>
</g>
<g>
	<g>
		<path d="M12.7,12c0.2,0.1,0.3,0.2,0.2,0.4c-0.4-0.1-0.8-0.2-1.3-0.3c0,0,0,0,0,0.1c0.3,0.9,1.7,0.5,1.4-0.4c0,0,0,0,0-0.1
			c-0.1-0.5-0.9-0.7-1.3-0.3c-0.7,0.6-0.4,1.9,0.5,2.1C13.3,13.7,13.7,12.3,12.7,12L12.7,12z"/>
	</g>
</g>
<g>
	<g>
		<path d="M3.4,36.5c0.3-0.8-0.7-1.5-1.3-0.9c-0.5,0.5-0.6,1.2-1,1.8c-0.5,0.8,0.8,1.6,1.3,0.8c0.2-0.3,0.3-0.6,0.4-0.8
			c0-0.1,0.1-0.2,0.1-0.4c0,0,0.2-0.3,0.1-0.2c-0.2,0-0.4,0.1-0.6,0.1c0,0,0,0,0.1,0c-0.1-0.1-0.3-0.2-0.4-0.3c0,0,0,0,0,0.1
			c0-0.2-0.1-0.4-0.1-0.6c0,0,0,0.1,0,0.1C1.6,37,3.1,37.4,3.4,36.5L3.4,36.5z"/>
	</g>
</g>
<g>
	<g>
		<path d="M19.2,37.1c-0.2,0.2-0.4,0.5-0.4,0.8c0,0.2,0,0.3,0.1,0.4c0,0.1,0.1,0.1,0.1,0.2c0.2,0.2,0.2,0.2-0.1-0.1
			c0.3,0.9,1.8,0.5,1.4-0.4c0-0.1-0.1-0.3-0.2-0.4c0-0.1-0.1-0.1-0.1-0.2c-0.2-0.2-0.2-0.2,0.1,0.1c0,0.1,0.1,0.3,0.1,0.4
			c0,0.1,0,0.1-0.1,0.2c0.3-0.3,0.3-0.8,0-1.1C20,36.8,19.6,36.9,19.2,37.1L19.2,37.1z"/>
	</g>
</g>
</svg>
