<?xml version="1.0" encoding="iso-8859-1"?>
<!-- Generator: Adobe Illustrator 19.0.0, SVG Export Plug-In . SVG Version: 6.00 Build 0)  -->
<svg version="1.1" id="Capa_1" xmlns="http://www.w3.org/2000/svg" xmlns:xlink="http://www.w3.org/1999/xlink" x="0px" y="0px"
	 viewBox="0 0 490 490" style="enable-background:new 0 0 490 490;" xml:space="preserve">
<g>
	<path d="M252.535,490V378.584h82.469l-90.008-109.62l-90,109.62h82.462V490H252.535z M244.996,292.728l58.116,70.778H186.888
		L244.996,292.728z"/>
	<path d="M142.363,236.777h205.26c46.925,0,85.105-36.957,85.105-82.381c0-44.79-37.134-81.35-83.176-82.351
		c-7.907-28.697-38.017-48.619-70.263-40.491C262.798,11.706,237.929,0,211.757,0c-44.135,0-80.724,32.025-85.922,73.959
		c-39.497,7.597-68.562,41.183-68.562,80.437C57.273,199.819,95.445,236.777,142.363,236.777z M133.734,87.976l6.309-0.766
		l0.317-6.346c1.811-36.884,33.173-65.787,71.397-65.787c23.19,0,45.122,11.058,58.668,29.595l3.254,4.461l5.242-1.767
		c5.021-1.693,9.674-2.518,14.209-2.518c21.365,0,39.799,15.401,42.876,35.838l0.957,6.42h10.66
		c38.606,0,70.027,30.184,70.027,67.289c0,37.104-31.421,67.303-70.027,67.303h-205.26c-38.606,0-70.013-30.199-70.013-67.303
		C72.35,120.781,98.743,92.216,133.734,87.976z"/>
</g>
<g>
</g>
<g>
</g>
<g>
</g>
<g>
</g>
<g>
</g>
<g>
</g>
<g>
</g>
<g>
</g>
<g>
</g>
<g>
</g>
<g>
</g>
<g>
</g>
<g>
</g>
<g>
</g>
<g>
</g>
</svg>
